<svg width="24" height="24" version="1.1" viewBox="0 0 24 24" xmlns="http://www.w3.org/2000/svg"><path d="m20.972 4.9905c0 1.0075-0.45245 1.9026-1.142 2.4457l-6.694 5.9783c-0.12433 0.10656-0.28595-0.06527-0.19626-0.20869l2.4554-4.9162c0.0688-0.13765-0.0204-0.30682-0.16162-0.30682h-9.5238c-1.475 0-2.6819-1.3463-2.6819-2.9914 0-1.6455 1.2068-2.9914 2.6819-2.9914h12.58c1.475-8.88e-4 2.6819 1.3454 2.6819 2.9905zm-15.262 17.01h12.58c1.475 0 2.6819-1.3463 2.6819-2.9914 0-1.6455-1.2068-2.9914-2.6819-2.9914h-9.5238c-0.1412 0-0.23045-0.16917-0.16162-0.30682l2.4554-4.9162c0.0897-0.14342-0.0719-0.31526-0.19626-0.20869l-6.694 5.9774c-0.68956 0.54259-1.142 1.4382-1.142 2.4457 0 1.6451 1.2068 2.9914 2.6819 2.9914z" fill="#fff" stroke-width=".044402"/></svg>
